<svg width="65" height="65" viewBox="0 0 65 65" fill="none" xmlnsXlink="http://www.w3.org/2000/svg">
<rect x="0.5" y="0.37561" width="64" height="64" rx="8" fill="#E0F2FE"/>
<path d="M47.7831 15.809C46.5885 15.6032 45.3787 15.4973 44.1665 15.4923C40.0304 15.4889 35.9806 16.6749 32.4998 18.909C29.0101 16.7043 24.9609 15.5474 20.8331 15.5757C19.6209 15.5806 18.4112 15.6865 17.2165 15.8923C16.8252 15.9598 16.4708 16.1647 16.2172 16.4703C15.9636 16.7759 15.8274 17.1619 15.8331 17.559V37.559C15.8296 37.8039 15.88 38.0465 15.9809 38.2697C16.0818 38.4929 16.2306 38.6911 16.4168 38.8502C16.6029 39.0094 16.8219 39.1255 17.0581 39.1904C17.2942 39.2553 17.5418 39.2673 17.7831 39.2256C20.1715 38.8121 22.6185 38.8807 24.9799 39.4274C27.3414 39.9742 29.5695 40.9879 31.5331 42.409L31.7331 42.5256H31.9165C32.1013 42.6027 32.2996 42.6423 32.4998 42.6423C32.7001 42.6423 32.8983 42.6027 33.0832 42.5256H33.2665L33.4665 42.409C35.4164 40.9561 37.6382 39.9095 40.0001 39.3312C42.362 38.7529 44.8159 38.6547 47.2165 39.0423C47.4578 39.084 47.7054 39.0719 47.9416 39.007C48.1777 38.9422 48.3967 38.826 48.5829 38.6669C48.769 38.5078 48.9179 38.3096 49.0187 38.0864C49.1196 37.8632 49.1701 37.6205 49.1665 37.3756V17.3756C49.1491 16.9959 49.0025 16.6335 48.7509 16.3485C48.4993 16.0636 48.1578 15.8732 47.7831 15.809ZM30.8331 37.959C27.7496 36.3368 24.3173 35.4902 20.8331 35.4923C20.2831 35.4923 19.7331 35.4923 19.1665 35.4923V18.8256C19.7216 18.7937 20.2781 18.7937 20.8331 18.8256C24.3888 18.8217 27.8668 19.8651 30.8331 21.8256V37.959ZM45.8331 35.559C45.2665 35.559 44.7165 35.559 44.1665 35.559C40.6823 35.5568 37.25 36.4035 34.1665 38.0256V21.8256C37.1328 19.8651 40.6108 18.8217 44.1665 18.8256C44.7216 18.7937 45.2781 18.7937 45.8331 18.8256V35.559ZM47.7831 42.4756C46.5885 42.2699 45.3787 42.1639 44.1665 42.159C40.0304 42.1556 35.9806 43.3416 32.4998 45.5756C29.019 43.3416 24.9692 42.1556 20.8331 42.159C19.6209 42.1639 18.4112 42.2699 17.2165 42.4756C16.9995 42.5101 16.7915 42.5871 16.6044 42.7022C16.4173 42.8173 16.2548 42.9682 16.1263 43.1463C15.9977 43.3245 15.9056 43.5262 15.8553 43.7401C15.805 43.9539 15.7975 44.1756 15.8331 44.3923C15.9178 44.8251 16.1706 45.2067 16.5361 45.4535C16.9016 45.7003 17.35 45.7922 17.7831 45.709C20.1715 45.2955 22.6185 45.3641 24.9799 45.9108C27.3414 46.4575 29.5695 47.4712 31.5331 48.8923C31.8154 49.0933 32.1533 49.2013 32.4998 49.2013C32.8463 49.2013 33.1842 49.0933 33.4665 48.8923C35.4301 47.4712 37.6583 46.4575 40.0197 45.9108C42.3811 45.3641 44.8281 45.2955 47.2165 45.709C47.6496 45.7922 48.098 45.7003 48.4635 45.4535C48.829 45.2067 49.0818 44.8251 49.1665 44.3923C49.2021 44.1756 49.1946 43.9539 49.1443 43.7401C49.094 43.5262 49.0019 43.3245 48.8734 43.1463C48.7448 42.9682 48.5823 42.8173 48.3952 42.7022C48.2081 42.5871 48.0001 42.5101 47.7831 42.4756Z" fill="#0284C7"/>
</svg>
