<svg width="57" height="56" viewBox="0 0 57 56" fill="none" xmlnsXlink="http://www.w3.org/2000/svg">
<circle cx="28.5" cy="28" r="28" fill="#FB923C"/>
<g clip-path="url(#clip0_157_7351)">
<rect width="24" height="24" transform="translate(16.5 16)" fill="#FB923C"/>
<path d="M27.5751 39.5158C20.7642 29.6421 19.5 28.6287 19.5 25C19.5 20.0294 23.5294 16 28.5 16C33.4706 16 37.5 20.0294 37.5 25C37.5 28.6287 36.2358 29.6421 29.4249 39.5158C28.978 40.1614 28.022 40.1614 27.5751 39.5158ZM28.5 28.75C30.5711 28.75 32.25 27.0711 32.25 25C32.25 22.9289 30.5711 21.25 28.5 21.25C26.4289 21.25 24.75 22.9289 24.75 25C24.75 27.0711 26.4289 28.75 28.5 28.75Z" fill="#FFEDD5"/>
</g>
<defs>
<clipPath id="clip0_157_7351">
<rect width="24" height="24" fill="white" transform="translate(16.5 16)"/>
</clipPath>
</defs>
</svg>
