<svg width="24" height="25" viewBox="0 0 24 25" fill="none" xmlnsXlink="http://www.w3.org/2000/svg">
<path d="M12 1.37549C9.61305 1.37549 7.32387 2.3237 5.63604 4.01153C3.94821 5.69935 3 7.98854 3 10.3755C3 16.4505 10.9313 23.313 11.2688 23.6055C11.4725 23.7798 11.7319 23.8756 12 23.8756C12.2681 23.8756 12.5275 23.7798 12.7312 23.6055C13.125 23.313 21 16.4505 21 10.3755C21 7.98854 20.0518 5.69935 18.364 4.01153C16.6761 2.3237 14.3869 1.37549 12 1.37549ZM12 21.2317C9.60375 18.9817 5.25 14.133 5.25 10.3755C5.25 8.58528 5.96116 6.86839 7.22703 5.60252C8.4929 4.33665 10.2098 3.62549 12 3.62549C13.7902 3.62549 15.5071 4.33665 16.773 5.60252C18.0388 6.86839 18.75 8.58528 18.75 10.3755C18.75 14.133 14.3962 18.993 12 21.2317ZM12 5.87549C11.11 5.87549 10.24 6.13941 9.49993 6.63387C8.75991 7.12834 8.18314 7.83114 7.84254 8.65341C7.50195 9.47568 7.41283 10.3805 7.58647 11.2534C7.7601 12.1263 8.18868 12.9281 8.81802 13.5575C9.44736 14.1868 10.2492 14.6154 11.1221 14.789C11.995 14.9627 12.8998 14.8735 13.7221 14.5329C14.5443 14.1924 15.2471 13.6156 15.7416 12.8756C16.2361 12.1355 16.5 11.2655 16.5 10.3755C16.5 9.18201 16.0259 8.03742 15.182 7.19351C14.3381 6.34959 13.1935 5.87549 12 5.87549ZM12 12.6255C11.555 12.6255 11.12 12.4935 10.75 12.2463C10.38 11.9991 10.0916 11.6477 9.92127 11.2365C9.75097 10.8254 9.70642 10.373 9.79323 9.93653C9.88005 9.50008 10.0943 9.09917 10.409 8.7845C10.7237 8.46983 11.1246 8.25554 11.561 8.16872C11.9975 8.0819 12.4499 8.12646 12.861 8.29676C13.2722 8.46706 13.6236 8.75545 13.8708 9.12546C14.118 9.49547 14.25 9.93048 14.25 10.3755C14.25 10.9722 14.0129 11.5445 13.591 11.9665C13.169 12.3884 12.5967 12.6255 12 12.6255Z" fill="#171717"/>
</svg>
