<svg width="16" height="16" viewBox="0 0 16 16" fill="none" xmlnsXlink="http://www.w3.org/2000/svg">
<path d="M14.3327 7.50492C14.2242 7.39557 14.0952 7.30878 13.953 7.24955C13.8109 7.19032 13.6584 7.15983 13.5044 7.15983C13.3503 7.15983 13.1979 7.19032 13.0557 7.24955C12.9135 7.30878 12.7845 7.39557 12.676 7.50492L8.83779 11.3548V2.50002C8.83779 2.1906 8.71487 1.89386 8.49608 1.67508C8.27729 1.45629 7.98055 1.33337 7.67114 1.33337C7.36173 1.33337 7.06499 1.45629 6.8462 1.67508C6.62741 1.89386 6.5045 2.1906 6.5045 2.50002V11.3548L2.66624 7.50492C2.44656 7.28524 2.1486 7.16182 1.83792 7.16182C1.52724 7.16182 1.22929 7.28524 1.0096 7.50492C0.789921 7.7246 0.666504 8.02256 0.666504 8.33324C0.666504 8.64392 0.789921 8.94187 1.0096 9.16156L6.84282 14.9948C6.95378 15.101 7.08461 15.1842 7.22782 15.2398C7.36746 15.3015 7.51846 15.3334 7.67114 15.3334C7.82382 15.3334 7.97482 15.3015 8.11447 15.2398C8.25767 15.1842 8.38851 15.101 8.49946 14.9948L14.3327 9.16156C14.442 9.0531 14.5288 8.92407 14.588 8.7819C14.6473 8.63974 14.6778 8.48725 14.6778 8.33324C14.6778 8.17923 14.6473 8.02674 14.588 7.88457C14.5288 7.74241 14.442 7.61338 14.3327 7.50492Z" fill="#F97316"/>
</svg>
