<svg width="14" height="15" viewBox="0 0 14 15" fill="none" xmlnsXlink="http://www.w3.org/2000/svg">
<path d="M12.3813 6.45855H4.63959L8.00557 3.10278C8.19764 2.91071 8.30554 2.65021 8.30554 2.37858C8.30554 2.10696 8.19764 1.84646 8.00557 1.65439C7.8135 1.46232 7.553 1.35442 7.28137 1.35442C7.00975 1.35442 6.74925 1.46232 6.55718 1.65439L1.45722 6.75435C1.36435 6.85136 1.29156 6.96574 1.24302 7.09095C1.141 7.33928 1.141 7.61781 1.24302 7.86614C1.29156 7.99135 1.36435 8.10574 1.45722 8.20274L6.55718 13.3027C6.652 13.3983 6.76481 13.4742 6.88911 13.526C7.0134 13.5778 7.14672 13.6044 7.28137 13.6044C7.41603 13.6044 7.54934 13.5778 7.67364 13.526C7.79794 13.4742 7.91075 13.3983 8.00557 13.3027C8.10117 13.2079 8.17705 13.0951 8.22884 12.9708C8.28062 12.8465 8.30728 12.7132 8.30728 12.5785C8.30728 12.4439 8.28062 12.3105 8.22884 12.1862C8.17705 12.0619 8.10117 11.9491 8.00557 11.8543L4.63959 8.49854H12.3813C12.6519 8.49854 12.9113 8.39108 13.1026 8.19979C13.2939 8.0085 13.4013 7.74906 13.4013 7.47855C13.4013 7.20803 13.2939 6.94859 13.1026 6.7573C12.9113 6.56602 12.6519 6.45855 12.3813 6.45855Z" fill="#171717"/>
</svg>
