<svg width="64" height="64" viewBox="0 0 64 64" fill="none" xmlnsXlink="http://www.w3.org/2000/svg">
<rect y="0.000488281" width="64" height="64" rx="8" fill="#E0F2FE"/>
<path d="M47.2827 15.4339C46.088 15.2281 44.8783 15.1222 43.666 15.1172C39.5299 15.1138 35.4801 16.2998 31.9993 18.5339C28.5096 16.3291 24.4604 15.1722 20.3327 15.2005C19.1204 15.2055 17.9107 15.3114 16.716 15.5172C16.3247 15.5847 15.9703 15.7896 15.7167 16.0952C15.4631 16.4007 15.3269 16.7868 15.3327 17.1839V37.1839C15.3291 37.4287 15.3795 37.6714 15.4804 37.8946C15.5813 38.1178 15.7301 38.316 15.9163 38.4751C16.1025 38.6342 16.3214 38.7504 16.5576 38.8153C16.7938 38.8801 17.0413 38.8922 17.2827 38.8505C19.671 38.437 22.118 38.5056 24.4794 39.0523C26.8409 39.599 29.069 40.6128 31.0327 42.0339L31.2327 42.1505H31.416C31.6008 42.2275 31.7991 42.2672 31.9993 42.2672C32.1996 42.2672 32.3978 42.2275 32.5827 42.1505H32.766L32.966 42.0339C34.9159 40.581 37.1377 39.5344 39.4996 38.9561C41.8615 38.3778 44.3154 38.2796 46.716 38.6672C46.9573 38.7089 47.2049 38.6968 47.4411 38.6319C47.6772 38.567 47.8962 38.4509 48.0824 38.2918C48.2686 38.1326 48.4174 37.9344 48.5182 37.7113C48.6191 37.4881 48.6696 37.2454 48.666 37.0005V17.0005C48.6487 16.6208 48.502 16.2584 48.2504 15.9734C47.9988 15.6885 47.6573 15.4981 47.2827 15.4339ZM30.3327 37.5839C27.2491 35.9617 23.8169 35.115 20.3327 35.1172C19.7827 35.1172 19.2327 35.1172 18.666 35.1172V18.4505C19.2211 18.4185 19.7776 18.4185 20.3327 18.4505C23.8883 18.4466 27.3664 19.49 30.3327 21.4505V37.5839ZM45.3327 35.1839C44.766 35.1839 44.216 35.1839 43.666 35.1839C40.1818 35.1817 36.7495 36.0283 33.666 37.6505V21.4505C36.6323 19.49 40.1104 18.4466 43.666 18.4505C44.2211 18.4185 44.7776 18.4185 45.3327 18.4505V35.1839ZM47.2827 42.1005C46.088 41.8947 44.8783 41.7888 43.666 41.7839C39.5299 41.7805 35.4801 42.9665 31.9993 45.2005C28.5185 42.9665 24.4687 41.7805 20.3327 41.7839C19.1204 41.7888 17.9107 41.8947 16.716 42.1005C16.499 42.135 16.291 42.2119 16.1039 42.327C15.9168 42.4421 15.7543 42.5931 15.6258 42.7712C15.4972 42.9493 15.4051 43.1511 15.3548 43.3649C15.3045 43.5788 15.297 43.8004 15.3327 44.0172C15.4174 44.45 15.6701 44.8316 16.0356 45.0784C16.4011 45.3252 16.8496 45.417 17.2827 45.3339C19.671 44.9203 22.118 44.9889 24.4794 45.5357C26.8409 46.0824 29.069 47.0961 31.0327 48.5172C31.3149 48.7182 31.6528 48.8262 31.9993 48.8262C32.3458 48.8262 32.6837 48.7182 32.966 48.5172C34.9296 47.0961 37.1578 46.0824 39.5192 45.5357C41.8807 44.9889 44.3276 44.9203 46.716 45.3339C47.1491 45.417 47.5975 45.3252 47.963 45.0784C48.3285 44.8316 48.5813 44.45 48.666 44.0172C48.7017 43.8004 48.6941 43.5788 48.6438 43.3649C48.5935 43.1511 48.5014 42.9493 48.3729 42.7712C48.2443 42.5931 48.0818 42.4421 47.8947 42.327C47.7076 42.2119 47.4996 42.135 47.2827 42.1005Z" fill="#0284C7"/>
</svg>
