<svg width="51" height="100" viewBox="0 0 51 100" fill="none" xmnlsLink="http://www.w3.org/2000/svg">
<path fill-rule="evenodd" clip-rule="evenodd" d="M44.5627 92.9691C40.8777 92.4592 37.2645 91.4804 33.8124 90.0505C28.5019 87.8508 23.6766 84.6267 19.6121 80.5622C15.5476 76.4977 12.3235 71.6724 10.1238 66.3619C7.92415 61.0514 6.79199 55.3597 6.79199 49.6116C6.79199 43.8636 7.92416 38.1718 10.1238 32.8613C12.3235 27.5508 15.5477 22.7255 19.6121 18.6611C23.6766 14.5966 28.5019 11.3724 33.8124 9.17276C37.2645 7.74286 40.8777 6.76405 44.5627 6.2541L44.5627 92.9691ZM46.4152 99.2092C48.7005 99.4003 50.5627 97.5233 50.5627 95.23L50.5627 3.9932C50.5627 1.69995 48.7005 -0.177079 46.4152 0.0140217C41.3003 0.441748 36.2737 1.65888 31.5163 3.62948C25.4778 6.13069 19.9911 9.79677 15.3695 14.4184C10.7479 19.0401 7.08178 24.5267 4.58056 30.5652C2.07935 36.6037 0.791992 43.0756 0.791992 49.6116C0.791992 56.1476 2.07935 62.6196 4.58056 68.658C7.08177 74.6965 10.7479 80.1832 15.3695 84.8048C19.9911 89.4265 25.4778 93.0925 31.5163 95.5938C36.2737 97.5644 41.3003 98.7815 46.4152 99.2092Z" fill="#BAE6FD"/>
</svg>
