<svg width="61" height="95" viewBox="0 0 61 95" fill="none" xmlns="http://www.w3.org/2000/svg">
<path d="M0.150495 3.7881C-0.0966003 2.86592 0.450077 1.91485 1.38051 1.70095C6.98438 0.412625 12.7782 0.135364 18.4883 0.887108C24.7701 1.71413 30.8275 3.77034 36.3147 6.93836C41.8018 10.1064 46.6113 14.3241 50.4684 19.3509C54.3255 24.3776 57.1548 30.1148 58.7947 36.2349C60.4346 42.355 60.853 48.7383 60.0259 55.0201C59.1989 61.3019 57.1427 67.3593 53.9747 72.8465C50.8067 78.3336 46.5889 83.1431 41.5622 87.0002C36.993 90.5063 31.8368 93.1631 26.3395 94.8493C25.4268 95.1293 24.4778 94.5789 24.2307 93.6568L12.1906 48.7224L0.150495 3.7881Z" fill="#BAE6FD"/>
</svg>
