<svg  viewBox="0 0 265 133" fill="none" xmlns="http://www.w3.org/2000/svg">
<path d="M262.538 0.874741C263.492 0.874741 264.267 1.64876 264.255 2.60338C264.036 19.3423 260.633 35.8923 254.222 51.3681C247.592 67.3765 237.872 81.9221 225.62 94.1743C213.368 106.427 198.822 116.146 182.814 122.777C166.806 129.407 149.648 132.82 132.321 132.82C114.993 132.82 97.8356 129.407 81.8272 122.777C65.8188 116.146 51.2732 106.427 39.021 94.1743C26.7687 81.9221 17.0496 67.3765 10.4188 51.3681C4.00845 35.8923 0.605624 19.3423 0.386323 2.60336C0.373816 1.64873 1.14894 0.874725 2.10364 0.874725L132.321 0.874741L262.538 0.874741Z" fill="#E0F2FE"/>
</svg>
