<svg  viewBox="0 0 145 227" fill="none" xmlns="http://www.w3.org/2000/svg">
<path id="Floating_33" fill-rule="evenodd" clip-rule="evenodd" d="M66.7821 13.6953C75.7384 17.2432 84.178 22.0226 91.8514 27.9106C102.712 36.2446 111.826 46.6363 118.671 58.4923C125.516 70.3483 129.959 83.4364 131.746 97.0094C133.533 110.582 132.629 124.375 129.085 137.598C125.542 150.822 119.429 163.218 111.095 174.079C102.761 184.94 92.3691 194.054 80.5131 200.899C68.6571 207.744 55.569 212.187 41.996 213.973C32.4067 215.236 22.708 215.155 13.1777 213.75L66.7821 13.6953ZM67.7287 1.22683C62.6884 -0.585795 57.3523 2.5232 55.966 7.69698L0.811535 213.536C-0.574775 218.71 2.49194 224.071 7.76325 225.021C19.5616 227.148 31.6377 227.441 43.5623 225.871C58.6977 223.878 73.2924 218.924 86.5131 211.291C99.7339 203.658 111.322 193.496 120.615 181.384C129.908 169.273 136.725 155.45 140.676 140.704C144.628 125.958 145.636 110.579 143.643 95.4431C141.65 80.3077 136.696 65.713 129.063 52.4923C121.43 39.2715 111.268 27.6837 99.1565 18.3904C89.6145 11.0685 79.0099 5.28391 67.7287 1.22683Z" fill="#BAE6FD"/>
</svg>
