<svg width="64" height="64" viewBox="0 0 64 64" fill="none" xmlnsXlink="http://www.w3.org/2000/svg">
<rect y="0.000488281" width="64" height="64" rx="8" fill="#E0F2FE"/>
<path d="M42.0007 19.5003H47.0007C47.4427 19.5003 47.8666 19.3247 48.1792 19.0122C48.4917 18.6996 48.6673 18.2757 48.6673 17.8337C48.6673 17.3916 48.4917 16.9677 48.1792 16.6551C47.8666 16.3426 47.4427 16.167 47.0007 16.167H42.0007C41.5586 16.167 41.1347 16.3426 40.8221 16.6551C40.5096 16.9677 40.334 17.3916 40.334 17.8337C40.334 18.2757 40.5096 18.6996 40.8221 19.0122C41.1347 19.3247 41.5586 19.5003 42.0007 19.5003ZM47.0007 22.8337H17.0007C16.5586 22.8337 16.1347 23.0093 15.8221 23.3218C15.5096 23.6344 15.334 24.0583 15.334 24.5003V31.167C15.334 31.609 15.5096 32.0329 15.8221 32.3455C16.1347 32.6581 16.5586 32.8337 17.0007 32.8337H19.584L28.1007 37.1003L23.8007 39.2503C22.8723 38.3468 21.6294 37.839 20.334 37.8337C19.3451 37.8337 18.3784 38.1269 17.5561 38.6763C16.7339 39.2257 16.093 40.0066 15.7146 40.9202C15.3362 41.8339 15.2371 42.8392 15.4301 43.8091C15.623 44.779 16.0992 45.6699 16.7985 46.3692C17.4977 47.0685 18.3886 47.5447 19.3585 47.7376C20.3284 47.9305 21.3338 47.8315 22.2474 47.4531C23.161 47.0746 23.9419 46.4338 24.4913 45.6115C25.0407 44.7893 25.334 43.8226 25.334 42.8337C25.3504 42.634 25.3504 42.4333 25.334 42.2337L31.9007 38.9003L38.6673 42.4003C38.6591 42.5447 38.6591 42.6893 38.6673 42.8337C38.6673 43.8226 38.9606 44.7893 39.51 45.6115C40.0594 46.4338 40.8403 47.0746 41.7539 47.4531C42.6675 47.8315 43.6729 47.9305 44.6428 47.7376C45.6127 47.5447 46.5036 47.0685 47.2029 46.3692C47.9021 45.6699 48.3783 44.779 48.5712 43.8091C48.7642 42.8392 48.6652 41.8339 48.2867 40.9202C47.9083 40.0066 47.2674 39.2257 46.4452 38.6763C45.6229 38.1269 44.6562 37.8337 43.6673 37.8337C42.9978 37.8363 42.3356 37.9734 41.7201 38.2368C41.1046 38.5002 40.5482 38.8845 40.084 39.367L35.5507 37.1003L44.0673 32.8337H47.0007C47.4427 32.8337 47.8666 32.6581 48.1792 32.3455C48.4917 32.0329 48.6673 31.609 48.6673 31.167V24.5003C48.6673 24.2815 48.6242 24.0647 48.5405 23.8625C48.4567 23.6603 48.3339 23.4766 48.1792 23.3218C48.0244 23.167 47.8407 23.0443 47.6385 22.9605C47.4362 22.8768 47.2195 22.8337 47.0007 22.8337ZM20.334 44.5003C20.0044 44.5003 19.6821 44.4026 19.408 44.2194C19.134 44.0363 18.9203 43.776 18.7942 43.4715C18.668 43.1669 18.635 42.8318 18.6993 42.5085C18.7637 42.1852 18.9224 41.8882 19.1555 41.6551C19.3886 41.4221 19.6855 41.2633 20.0088 41.199C20.3321 41.1347 20.6672 41.1677 20.9718 41.2939C21.2763 41.42 21.5366 41.6336 21.7198 41.9077C21.9029 42.1818 22.0007 42.504 22.0007 42.8337C22.0007 43.2757 21.8251 43.6996 21.5125 44.0122C21.1999 44.3247 20.776 44.5003 20.334 44.5003ZM43.6673 41.167C43.997 41.167 44.3192 41.2647 44.5933 41.4479C44.8674 41.631 45.081 41.8913 45.2071 42.1959C45.3333 42.5004 45.3663 42.8355 45.302 43.1588C45.2377 43.4821 45.0789 43.7791 44.8458 44.0122C44.6127 44.2453 44.3158 44.404 43.9925 44.4683C43.6692 44.5326 43.3341 44.4996 43.0295 44.3735C42.725 44.2473 42.4647 44.0337 42.2815 43.7596C42.0984 43.4855 42.0007 43.1633 42.0007 42.8337C42.0007 42.3916 42.1762 41.9677 42.4888 41.6551C42.8014 41.3426 43.2253 41.167 43.6673 41.167ZM31.834 35.2337L27.0007 32.8337H36.584L31.834 35.2337ZM45.334 29.5003H18.6673V26.167H45.334V29.5003Z" fill="#0284C7"/>
</svg>
