<svg width="64" height="64" viewBox="0 0 64 64" fill="none" xmlnsXlink="http://www.w3.org/2000/svg">
<rect y="0.000488281" width="64" height="64" rx="8" fill="#FFEDD5"/>
<path d="M45.3335 38.9672V38.6672C45.3306 37.6356 45.0087 36.6302 44.4119 35.7887C43.8152 34.9473 42.9727 34.311 42.0002 33.9672V23.6672H43.6668C44.1089 23.6672 44.5328 23.4916 44.8453 23.179C45.1579 22.8664 45.3335 22.4425 45.3335 22.0005C45.3335 21.5585 45.1579 21.1345 44.8453 20.822C44.5328 20.5094 44.1089 20.3338 43.6668 20.3338H23.6668C23.6668 19.0077 23.14 17.736 22.2024 16.7983C21.2647 15.8606 19.9929 15.3338 18.6668 15.3338H17.0002C16.5581 15.3338 16.1342 15.5094 15.8217 15.822C15.5091 16.1345 15.3335 16.5585 15.3335 17.0005C15.3335 17.4425 15.5091 17.8664 15.8217 18.179C16.1342 18.4916 16.5581 18.6672 17.0002 18.6672H18.6668C19.1089 18.6672 19.5328 18.8427 19.8453 19.1553C20.1579 19.4679 20.3335 19.8918 20.3335 20.3338V32.7005C18.9563 33.3015 17.7673 34.2637 16.8923 35.4853C16.0173 36.7068 15.4888 38.1422 15.3628 39.6395C15.2369 41.1368 15.5181 42.6403 16.1767 43.9909C16.8354 45.3414 17.8469 46.4888 19.1043 47.3115C20.3616 48.1341 21.8181 48.6015 23.3194 48.6642C24.8207 48.7268 26.311 48.3824 27.6325 47.6674C28.9541 46.9523 30.0577 45.8932 30.8266 44.6022C31.5954 43.3113 32.0009 41.8364 32.0002 40.3338C32.0017 39.1861 31.7633 38.0507 31.3002 37.0005H40.3335C40.7755 37.0005 41.1995 37.1761 41.512 37.4886C41.8246 37.8012 42.0002 38.2251 42.0002 38.6672V38.9672C40.8881 39.3603 39.9509 40.1339 39.3541 41.1513C38.7573 42.1686 38.5394 43.3642 38.7388 44.5267C38.9383 45.6892 39.5423 46.7438 40.4441 47.504C41.3458 48.2642 42.4874 48.6812 43.6668 48.6812C44.8463 48.6812 45.9878 48.2642 46.8896 47.504C47.7914 46.7438 48.3954 45.6892 48.5948 44.5267C48.7943 43.3642 48.5763 42.1686 47.9796 41.1513C47.3828 40.1339 46.4455 39.3603 45.3335 38.9672ZM23.6668 45.3338C22.6779 45.3338 21.7112 45.0406 20.889 44.4912C20.0667 43.9418 19.4259 43.1609 19.0474 42.2472C18.669 41.3336 18.57 40.3283 18.7629 39.3584C18.9558 38.3885 19.432 37.4975 20.1313 36.7983C20.8306 36.099 21.7215 35.6228 22.6914 35.4299C23.6613 35.237 24.6666 35.336 25.5802 35.7144C26.4939 36.0929 27.2748 36.7337 27.8242 37.556C28.3736 38.3782 28.6668 39.3449 28.6668 40.3338C28.6668 41.6599 28.14 42.9317 27.2024 43.8694C26.2647 44.807 24.9929 45.3338 23.6668 45.3338ZM38.6668 33.6672H28.6668C27.2284 32.5776 25.4713 31.9919 23.6668 32.0005V30.3338H38.6668V33.6672ZM38.6668 27.0005H23.6668V23.6672H38.6668V27.0005ZM43.6668 45.3338C43.3372 45.3338 43.015 45.2361 42.7409 45.0529C42.4668 44.8698 42.2532 44.6095 42.127 44.305C42.0009 44.0004 41.9679 43.6653 42.0322 43.342C42.0965 43.0187 42.2552 42.7217 42.4883 42.4886C42.7214 42.2556 43.0184 42.0968 43.3417 42.0325C43.665 41.9682 44.0001 42.0012 44.3046 42.1274C44.6092 42.2535 44.8695 42.4671 45.0526 42.7412C45.2358 43.0153 45.3335 43.3375 45.3335 43.6672C45.3335 44.1092 45.1579 44.5331 44.8453 44.8457C44.5328 45.1582 44.1089 45.3338 43.6668 45.3338ZM23.6668 38.6672C23.3372 38.6672 23.015 38.7649 22.7409 38.948C22.4668 39.1312 22.2532 39.3915 22.127 39.696C22.0009 40.0006 21.9679 40.3357 22.0322 40.659C22.0965 40.9823 22.2552 41.2792 22.4883 41.5123C22.7214 41.7454 23.0184 41.9042 23.3417 41.9685C23.665 42.0328 24.0001 41.9998 24.3046 41.8736C24.6092 41.7475 24.8695 41.5339 25.0526 41.2598C25.2358 40.9857 25.3335 40.6635 25.3335 40.3338C25.3335 39.8918 25.1579 39.4679 24.8453 39.1553C24.5328 38.8427 24.1089 38.6672 23.6668 38.6672Z" fill="#EA580C"/>
</svg>
