<svg width="64" height="64" viewBox="0 0 64 64" fill="none" xmlnsXlink="http://www.w3.org/2000/svg">
<rect y="0.000488281" width="64" height="64" rx="8" fill="#E0F2FE"/>
<path d="M43.667 15.334C43.225 15.334 42.801 15.5096 42.4885 15.8221C42.1759 16.1347 42.0003 16.5586 42.0003 17.0007V26.1007L40.3337 27.2173V17.0007C40.3337 16.5586 40.1581 16.1347 39.8455 15.8221C39.5329 15.5096 39.109 15.334 38.667 15.334C38.225 15.334 37.801 15.5096 37.4885 15.8221C37.1759 16.1347 37.0003 16.5586 37.0003 17.0007V27.2173L35.3337 26.1007V17.0007C35.3337 16.5586 35.1581 16.1347 34.8455 15.8221C34.5329 15.5096 34.109 15.334 33.667 15.334C33.225 15.334 32.801 15.5096 32.4885 15.8221C32.1759 16.1347 32.0003 16.5586 32.0003 17.0007V27.0007C32.0017 27.2752 32.0709 27.5451 32.2018 27.7864C32.3326 28.0277 32.5211 28.233 32.7503 28.384L37.0003 31.234V47.0007C37.0003 47.4427 37.1759 47.8666 37.4885 48.1792C37.801 48.4917 38.225 48.6673 38.667 48.6673C39.109 48.6673 39.5329 48.4917 39.8455 48.1792C40.1581 47.8666 40.3337 47.4427 40.3337 47.0007V31.234L44.5837 28.384C44.8129 28.233 45.0014 28.0277 45.1322 27.7864C45.263 27.5451 45.3322 27.2752 45.3337 27.0007V17.0007C45.3337 16.5586 45.1581 16.1347 44.8455 15.8221C44.5329 15.5096 44.109 15.334 43.667 15.334ZM27.0003 15.334C24.7902 15.334 22.6706 16.212 21.1078 17.7748C19.545 19.3376 18.667 21.4572 18.667 23.6673V33.6673C18.667 34.1093 18.8426 34.5333 19.1551 34.8458C19.4677 35.1584 19.8916 35.334 20.3337 35.334H25.3337V47.0007C25.3337 47.4427 25.5093 47.8666 25.8218 48.1792C26.1344 48.4917 26.5583 48.6673 27.0003 48.6673C27.4424 48.6673 27.8663 48.4917 28.1788 48.1792C28.4914 47.8666 28.667 47.4427 28.667 47.0007V17.0007C28.667 16.5586 28.4914 16.1347 28.1788 15.8221C27.8663 15.5096 27.4424 15.334 27.0003 15.334ZM25.3337 32.0007H22.0003V23.6673C21.9998 22.6329 22.3201 21.6238 22.9171 20.779C23.5141 19.9343 24.3584 19.2955 25.3337 18.9507V32.0007Z" fill="#0284C7"/>
</svg>
