<svg width="65" height="65" viewBox="0 0 65 65" fill="none" xmlnsXlink="http://www.w3.org/2000/svg">
<rect x="0.5" y="0.37561" width="64" height="64" rx="8" fill="#E0F2FE"/>
<path d="M44.1665 15.709C43.7245 15.709 43.3006 15.8846 42.988 16.1971C42.6754 16.5097 42.4998 16.9336 42.4998 17.3757V26.4757L40.8332 27.5923V17.3757C40.8332 16.9336 40.6576 16.5097 40.345 16.1971C40.0325 15.8846 39.6085 15.709 39.1665 15.709C38.7245 15.709 38.3006 15.8846 37.988 16.1971C37.6754 16.5097 37.4998 16.9336 37.4998 17.3757V27.5923L35.8332 26.4757V17.3757C35.8332 16.9336 35.6576 16.5097 35.345 16.1971C35.0325 15.8846 34.6085 15.709 34.1665 15.709C33.7245 15.709 33.3006 15.8846 32.988 16.1971C32.6754 16.5097 32.4998 16.9336 32.4998 17.3757V27.3757C32.5013 27.6502 32.5705 27.9201 32.7013 28.1614C32.8321 28.4027 33.0206 28.608 33.2498 28.759L37.4998 31.609V47.3757C37.4998 47.8177 37.6754 48.2416 37.988 48.5542C38.3006 48.8667 38.7245 49.0423 39.1665 49.0423C39.6085 49.0423 40.0325 48.8667 40.345 48.5542C40.6576 48.2416 40.8332 47.8177 40.8332 47.3757V31.609L45.0832 28.759C45.3124 28.608 45.5009 28.4027 45.6317 28.1614C45.7625 27.9201 45.8317 27.6502 45.8332 27.3757V17.3757C45.8332 16.9336 45.6576 16.5097 45.345 16.1971C45.0325 15.8846 44.6085 15.709 44.1665 15.709ZM27.4998 15.709C25.2897 15.709 23.1701 16.587 21.6073 18.1498C20.0445 19.7126 19.1665 21.8322 19.1665 24.0423V34.0423C19.1665 34.4843 19.3421 34.9083 19.6547 35.2208C19.9672 35.5334 20.3911 35.709 20.8332 35.709H25.8332V47.3757C25.8332 47.8177 26.0088 48.2416 26.3213 48.5542C26.6339 48.8667 27.0578 49.0423 27.4998 49.0423C27.9419 49.0423 28.3658 48.8667 28.6783 48.5542C28.9909 48.2416 29.1665 47.8177 29.1665 47.3757V17.3757C29.1665 16.9336 28.9909 16.5097 28.6783 16.1971C28.3658 15.8846 27.9419 15.709 27.4998 15.709ZM25.8332 32.3757H22.4998V24.0423C22.4993 23.0079 22.8196 21.9988 23.4166 21.154C24.0136 20.3093 24.8579 19.6705 25.8332 19.3257V32.3757Z" fill="#0284C7"/>
</svg>
