<svg width="57" height="56" viewBox="0 0 57 56" fill="none" xmlnsXlink="http://www.w3.org/2000/svg">
<circle cx="28.5" cy="28" r="28" fill="#FB923C"/>
<g clip-path="url(#clip0_157_7345)">
<rect width="24" height="24" transform="translate(16.5 16)" fill="#FB923C"/>
<path d="M40.0453 24.9438C40.2281 24.7984 40.5 24.9344 40.5 25.1641V34.75C40.5 35.9922 39.4922 37 38.25 37H18.75C17.5078 37 16.5 35.9922 16.5 34.75V25.1688C16.5 24.9344 16.7672 24.8031 16.9547 24.9484C18.0047 25.7641 19.3969 26.8 24.1781 30.2734C25.1672 30.9953 26.8359 32.5141 28.5 32.5047C30.1734 32.5188 31.875 30.9672 32.8266 30.2734C37.6078 26.8 38.9953 25.7594 40.0453 24.9438ZM28.5 31C29.5875 31.0188 31.1531 29.6313 31.9406 29.0594C38.1609 24.5453 38.6344 24.1516 40.0687 23.0266C40.3406 22.8156 40.5 22.4875 40.5 22.1406V21.25C40.5 20.0078 39.4922 19 38.25 19H18.75C17.5078 19 16.5 20.0078 16.5 21.25V22.1406C16.5 22.4875 16.6594 22.8109 16.9312 23.0266C18.3656 24.1469 18.8391 24.5453 25.0594 29.0594C25.8469 29.6313 27.4125 31.0188 28.5 31Z" fill="#FFEDD5"/>
</g>
<defs>
<clipPath id="clip0_157_7345">
<rect width="24" height="24" fill="white" transform="translate(16.5 16)"/>
</clipPath>
</defs>
</svg>
