<svg width="24" height="24" viewBox="0 0 24 24" fill="none" xmlnsXlink="http://www.w3.org/2000/svg">
<path d="M20.4 2.77539H3.6C2.64522 2.77539 1.72955 3.15468 1.05442 3.82981C0.379285 4.50494 0 5.42061 0 6.37539V18.3754C0 19.3302 0.379285 20.2458 1.05442 20.921C1.72955 21.5961 2.64522 21.9754 3.6 21.9754H20.4C21.3548 21.9754 22.2705 21.5961 22.9456 20.921C23.6207 20.2458 24 19.3302 24 18.3754V6.37539C24 5.42061 23.6207 4.50494 22.9456 3.82981C22.2705 3.15468 21.3548 2.77539 20.4 2.77539ZM3.6 5.17539H20.4C20.7183 5.17539 21.0235 5.30182 21.2485 5.52686C21.4736 5.75191 21.6 6.05713 21.6 6.37539L12 12.2314L2.4 6.37539C2.4 6.05713 2.52643 5.75191 2.75147 5.52686C2.97652 5.30182 3.28174 5.17539 3.6 5.17539ZM21.6 18.3754C21.6 18.6937 21.4736 18.9989 21.2485 19.2239C21.0235 19.449 20.7183 19.5754 20.4 19.5754H3.6C3.28174 19.5754 2.97652 19.449 2.75147 19.2239C2.52643 18.9989 2.4 18.6937 2.4 18.3754V9.11139L11.376 14.5954C11.5584 14.7007 11.7654 14.7562 11.976 14.7562C12.1866 14.7562 12.3936 14.7007 12.576 14.5954L21.6 9.11139V18.3754Z" fill="#171717"/>
</svg>
