<svg width="64" height="64" viewBox="0 0 64 64" fill="none" xmlnsXlink="http://www.w3.org/2000/svg">
<rect y="0.000488281" width="64" height="64" rx="8" fill="#E0F2FE"/>
<path d="M46.9997 29.3504H42.833C42.6125 29.3513 42.3944 29.396 42.1913 29.4818C41.9881 29.5677 41.8041 29.6929 41.6497 29.8504L39.583 32.0004L34.9164 26.6837C34.7605 26.5172 34.572 26.3845 34.3628 26.2937C34.1535 26.203 33.9278 26.1562 33.6997 26.1562C33.4716 26.1562 33.2459 26.203 33.0366 26.2937C32.8273 26.3845 32.6389 26.5172 32.483 26.6837L29.6497 29.5171H26.9997C26.5577 29.5171 26.1337 29.6927 25.8212 30.0052C25.5086 30.3178 25.333 30.7417 25.333 31.1837C25.333 31.6258 25.5086 32.0497 25.8212 32.3623C26.1337 32.6748 26.5577 32.8504 26.9997 32.8504H30.333C30.5524 32.8517 30.7698 32.8096 30.9729 32.7267C31.1759 32.6438 31.3606 32.5216 31.5164 32.3671L33.6664 30.1337L38.333 35.4504C38.4836 35.622 38.6678 35.7609 38.8742 35.8583C39.0806 35.9558 39.3049 36.0098 39.533 36.0171C39.7524 36.0183 39.9698 35.9763 40.1729 35.8934C40.3759 35.8104 40.5606 35.6882 40.7164 35.5337L43.5497 32.6837H46.9997C47.4417 32.6837 47.8656 32.5082 48.1782 32.1956C48.4908 31.883 48.6664 31.4591 48.6664 31.0171C48.6664 30.5751 48.4908 30.1511 48.1782 29.8386C47.8656 29.526 47.4417 29.3504 46.9997 29.3504ZM34.683 38.1837L31.5164 41.3504C31.3614 41.5066 31.1771 41.6306 30.974 41.7152C30.7709 41.7998 30.553 41.8434 30.333 41.8434C30.113 41.8434 29.8952 41.7998 29.6921 41.7152C29.489 41.6306 29.3046 41.5066 29.1497 41.3504L20.4664 32.6671C19.8949 32.096 19.4416 31.4178 19.1323 30.6714C18.823 29.925 18.6638 29.125 18.6638 28.3171C18.6638 27.5091 18.823 26.7091 19.1323 25.9627C19.4416 25.2163 19.8949 24.5382 20.4664 23.9671C21.6191 22.818 23.1804 22.1728 24.808 22.1728C26.4357 22.1728 27.9969 22.818 29.1497 23.9671C29.3046 24.1233 29.489 24.2473 29.6921 24.3319C29.8952 24.4165 30.113 24.4601 30.333 24.4601C30.553 24.4601 30.7709 24.4165 30.974 24.3319C31.1771 24.2473 31.3614 24.1233 31.5164 23.9671C32.6875 22.8533 34.2418 22.2322 35.858 22.2322C37.4742 22.2322 39.0286 22.8533 40.1997 23.9671C40.5711 24.3433 40.8956 24.763 41.1664 25.2171C41.409 25.5508 41.7669 25.7826 42.1706 25.8677C42.5743 25.9527 42.9953 25.885 43.352 25.6777C43.7087 25.4703 43.9758 25.138 44.1016 24.745C44.2274 24.3521 44.203 23.9264 44.033 23.5504C43.6211 22.8663 43.1287 22.234 42.5664 21.6671C40.9847 20.0668 38.8848 19.0823 36.643 18.8898C34.4013 18.6974 32.1643 19.3098 30.333 20.6171C28.9178 19.5976 27.2484 18.9889 25.5091 18.8582C23.7698 18.7275 22.0282 19.0798 20.4765 19.8764C18.9247 20.6729 17.6233 21.8827 16.7156 23.3721C15.808 24.8616 15.3296 26.5729 15.333 28.3171C15.3325 29.5572 15.5783 30.7851 16.0561 31.9296C16.5339 33.074 17.2342 34.1121 18.1164 34.9837L26.7997 43.6671C27.7372 44.6034 29.008 45.1293 30.333 45.1293C31.658 45.1293 32.9289 44.6034 33.8664 43.6671L36.9997 40.5337C37.3101 40.2215 37.4843 39.7991 37.4843 39.3587C37.4843 38.9184 37.3101 38.496 36.9997 38.1837C36.6889 37.8833 36.2736 37.7154 35.8414 37.7154C35.4091 37.7154 34.9938 37.8833 34.683 38.1837Z" fill="#0284C7"/>
</svg>
