<svg width="64" height="64" viewBox="0 0 64 64" fill="none" xmlnsXlink="http://www.w3.org/2000/svg">
<rect y="0.000305176" width="64" height="64" rx="8" fill="#FFEDD5"/>
<path d="M47.0002 29.3503H42.8335C42.613 29.3512 42.3949 29.3959 42.1917 29.4817C41.9886 29.5675 41.8045 29.6928 41.6502 29.8503L39.5835 32.0003L34.9168 26.6836C34.761 26.5171 34.5725 26.3844 34.3632 26.2936C34.154 26.2029 33.9283 26.156 33.7002 26.156C33.4721 26.156 33.2464 26.2029 33.0371 26.2936C32.8278 26.3844 32.6394 26.5171 32.4835 26.6836L29.6502 29.517H27.0002C26.5582 29.517 26.1342 29.6926 25.8217 30.0051C25.5091 30.3177 25.3335 30.7416 25.3335 31.1836C25.3335 31.6257 25.5091 32.0496 25.8217 32.3621C26.1342 32.6747 26.5582 32.8503 27.0002 32.8503H30.3335C30.5529 32.8516 30.7703 32.8095 30.9734 32.7266C31.1764 32.6436 31.3611 32.5214 31.5168 32.367L33.6668 30.1336L38.3335 35.4503C38.4841 35.6219 38.6683 35.7607 38.8747 35.8582C39.0811 35.9557 39.3054 36.0097 39.5335 36.017C39.7529 36.0182 39.9703 35.9762 40.1734 35.8932C40.3764 35.8103 40.5611 35.6881 40.7168 35.5336L43.5502 32.6836H47.0002C47.4422 32.6836 47.8661 32.508 48.1787 32.1955C48.4913 31.8829 48.6669 31.459 48.6669 31.017C48.6669 30.5749 48.4913 30.151 48.1787 29.8384C47.8661 29.5259 47.4422 29.3503 47.0002 29.3503ZM34.6835 38.1836L31.5168 41.3503C31.3619 41.5065 31.1776 41.6305 30.9745 41.7151C30.7714 41.7997 30.5535 41.8433 30.3335 41.8433C30.1135 41.8433 29.8957 41.7997 29.6926 41.7151C29.4895 41.6305 29.3051 41.5065 29.1502 41.3503L20.4668 32.667C19.8954 32.0958 19.442 31.4177 19.1328 30.6713C18.8235 29.9249 18.6643 29.1249 18.6643 28.317C18.6643 27.509 18.8235 26.709 19.1328 25.9626C19.442 25.2162 19.8954 24.5381 20.4668 23.967C21.6196 22.8179 23.1809 22.1727 24.8085 22.1727C26.4361 22.1727 27.9974 22.8179 29.1502 23.967C29.3051 24.1232 29.4895 24.2472 29.6926 24.3318C29.8957 24.4164 30.1135 24.46 30.3335 24.46C30.5535 24.46 30.7714 24.4164 30.9745 24.3318C31.1776 24.2472 31.3619 24.1232 31.5168 23.967C32.688 22.8532 34.2423 22.232 35.8585 22.232C37.4747 22.232 39.0291 22.8532 40.2002 23.967C40.5715 24.3432 40.8961 24.7629 41.1668 25.217C41.4095 25.5506 41.7674 25.7825 42.1711 25.8675C42.5748 25.9526 42.9958 25.8849 43.3525 25.6775C43.7092 25.4702 43.9762 25.1378 44.1021 24.7449C44.2279 24.3519 44.2034 23.9263 44.0335 23.5503C43.6216 22.8662 43.1292 22.2339 42.5669 21.667C40.9852 20.0667 38.8852 19.0821 36.6435 18.8897C34.4017 18.6973 32.1647 19.3096 30.3335 20.617C28.9183 19.5974 27.2489 18.9888 25.5096 18.858C23.7703 18.7273 22.0287 19.0797 20.4769 19.8762C18.9252 20.6728 17.6238 21.8825 16.7161 23.372C15.8085 24.8615 15.33 26.5727 15.3335 28.317C15.333 29.5571 15.5788 30.785 16.0566 31.9294C16.5344 33.0738 17.2347 34.112 18.1168 34.9836L26.8002 43.667C27.7377 44.6033 29.0085 45.1292 30.3335 45.1292C31.6585 45.1292 32.9293 44.6033 33.8668 43.667L37.0002 40.5336C37.3106 40.2214 37.4848 39.7989 37.4848 39.3586C37.4848 38.9183 37.3106 38.4959 37.0002 38.1836C36.6894 37.8832 36.2741 37.7153 35.8419 37.7153C35.4096 37.7153 34.9943 37.8832 34.6835 38.1836Z" fill="#EA580C"/>
</svg>
