<svg width="64" height="64" viewBox="0 0 64 64" fill="none" xmlnsXlink="http://www.w3.org/2000/svg">
<rect y="0.000488281" width="64" height="64" rx="8" fill="#FFEDD5"/>
<path d="M28.6668 40.3338H30.3335V42.0005C30.3335 42.4425 30.5091 42.8665 30.8217 43.179C31.1342 43.4916 31.5581 43.6672 32.0002 43.6672C32.4422 43.6672 32.8661 43.4916 33.1787 43.179C33.4912 42.8665 33.6668 42.4425 33.6668 42.0005V40.3338H35.3335C35.7755 40.3338 36.1994 40.1582 36.512 39.8457C36.8246 39.5331 37.0002 39.1092 37.0002 38.6672C37.0002 38.2251 36.8246 37.8012 36.512 37.4887C36.1994 37.1761 35.7755 37.0005 35.3335 37.0005H33.6668V35.3338C33.6668 34.8918 33.4912 34.4679 33.1787 34.1553C32.8661 33.8428 32.4422 33.6672 32.0002 33.6672C31.5581 33.6672 31.1342 33.8428 30.8217 34.1553C30.5091 34.4679 30.3335 34.8918 30.3335 35.3338V37.0005H28.6668C28.2248 37.0005 27.8009 37.1761 27.4883 37.4887C27.1758 37.8012 27.0002 38.2251 27.0002 38.6672C27.0002 39.1092 27.1758 39.5331 27.4883 39.8457C27.8009 40.1582 28.2248 40.3338 28.6668 40.3338ZM43.6668 22.0005H40.3335V20.3338C40.3335 19.0077 39.8067 17.736 38.869 16.7983C37.9314 15.8606 36.6596 15.3338 35.3335 15.3338H28.6668C27.3407 15.3338 26.069 15.8606 25.1313 16.7983C24.1936 17.736 23.6668 19.0077 23.6668 20.3338V22.0005H20.3335C19.0074 22.0005 17.7356 22.5273 16.798 23.465C15.8603 24.4026 15.3335 25.6744 15.3335 27.0005V43.6672C15.3335 44.9932 15.8603 46.265 16.798 47.2027C17.7356 48.1404 19.0074 48.6672 20.3335 48.6672H43.6668C44.9929 48.6672 46.2647 48.1404 47.2024 47.2027C48.14 46.265 48.6668 44.9932 48.6668 43.6672V27.0005C48.6668 25.6744 48.14 24.4026 47.2024 23.465C46.2647 22.5273 44.9929 22.0005 43.6668 22.0005ZM27.0002 20.3338C27.0002 19.8918 27.1758 19.4679 27.4883 19.1553C27.8009 18.8428 28.2248 18.6672 28.6668 18.6672H35.3335C35.7755 18.6672 36.1994 18.8428 36.512 19.1553C36.8246 19.4679 37.0002 19.8918 37.0002 20.3338V22.0005H27.0002V20.3338ZM45.3335 43.6672C45.3335 44.1092 45.1579 44.5331 44.8453 44.8457C44.5328 45.1582 44.1089 45.3338 43.6668 45.3338H20.3335C19.8915 45.3338 19.4675 45.1582 19.155 44.8457C18.8424 44.5331 18.6668 44.1092 18.6668 43.6672V32.0005H45.3335V43.6672ZM45.3335 28.6672H18.6668V27.0005C18.6668 26.5585 18.8424 26.1345 19.155 25.822C19.4675 25.5094 19.8915 25.3338 20.3335 25.3338H43.6668C44.1089 25.3338 44.5328 25.5094 44.8453 25.822C45.1579 26.1345 45.3335 26.5585 45.3335 27.0005V28.6672Z" fill="#EA580C"/>
</svg>
