<svg width="57" height="56" viewBox="0 0 57 56" fill="none" xmlnsXlink="http://www.w3.org/2000/svg">
<circle cx="28.5" cy="28" r="28" fill="#FB923C"/>
<g clip-path="url(#clip0_157_7357)">
<rect width="24" height="24" transform="translate(16.5 16)" fill="#FB923C"/>
<path d="M39.8152 32.9594L34.5652 30.7094C34.3409 30.6138 34.0916 30.5937 33.8549 30.652C33.6182 30.7103 33.4068 30.844 33.2527 31.0328L30.9277 33.8734C27.2788 32.153 24.3423 29.2165 22.6219 25.5677L25.4625 23.2427C25.6517 23.0888 25.7857 22.8774 25.844 22.6406C25.9024 22.4037 25.882 22.1544 25.7859 21.9302L23.5359 16.6802C23.4305 16.4385 23.2441 16.2411 23.0088 16.1222C22.7734 16.0033 22.504 15.9702 22.2469 16.0286L17.3719 17.1536C17.124 17.2108 16.9028 17.3504 16.7445 17.5495C16.5861 17.7487 16.4999 17.9956 16.5 18.25C16.5 30.2734 26.2453 40 38.25 40C38.5045 40.0002 38.7515 39.914 38.9507 39.7557C39.15 39.5973 39.2896 39.3761 39.3469 39.1281L40.4719 34.2531C40.5299 33.9948 40.4961 33.7242 40.3763 33.4881C40.2564 33.252 40.058 33.065 39.8152 32.9594Z" fill="#FFEDD5"/>
</g>
<defs>
<clipPath id="clip0_157_7357">
<rect width="24" height="24" fill="white" transform="translate(16.5 16)"/>
</clipPath>
</defs>
</svg>
