<svg width="25" height="25" viewBox="0 0 25 25" fill="none" xmlnsXlink="http://www.w3.org/2000/svg">
<path d="M19.9582 13.3358C19.7382 13.3358 19.5082 13.2658 19.2882 13.2158C18.8427 13.1176 18.4048 12.9873 17.9782 12.8258C17.5143 12.657 17.0043 12.6658 16.5465 12.8504C16.0886 13.035 15.7153 13.3824 15.4982 13.8258L15.2782 14.2758C14.3042 13.734 13.4092 13.061 12.6182 12.2758C11.8329 11.4848 11.16 10.5898 10.6182 9.61581L11.0382 9.33581C11.4815 9.11872 11.8289 8.74534 12.0136 8.2875C12.1982 7.82966 12.2069 7.31972 12.0382 6.85581C11.8794 6.42823 11.7491 5.9906 11.6482 5.54581C11.5982 5.32581 11.5582 5.09581 11.5282 4.86581C11.4067 4.16143 11.0378 3.52355 10.4878 3.06704C9.93779 2.61054 9.24286 2.36541 8.52817 2.37581H5.52817C5.0972 2.37176 4.67042 2.46062 4.27688 2.63634C3.88334 2.81205 3.53228 3.0705 3.2476 3.39409C2.96292 3.71767 2.7513 4.0988 2.62716 4.51152C2.50301 4.92424 2.46925 5.35886 2.52817 5.78581C3.06091 9.97519 4.9742 13.8677 7.96582 16.8484C10.9574 19.8292 14.8569 21.7283 19.0482 22.2458H19.4282C20.1656 22.2469 20.8776 21.9763 21.4282 21.4858C21.7445 21.2028 21.9973 20.856 22.1696 20.4681C22.342 20.0803 22.4301 19.6602 22.4282 19.2358V16.2358C22.4159 15.5412 22.163 14.8724 21.7125 14.3435C21.262 13.8146 20.642 13.4584 19.9582 13.3358ZM20.4582 19.3358C20.458 19.4778 20.4276 19.6181 20.3689 19.7474C20.3103 19.8767 20.2248 19.9921 20.1182 20.0858C20.0064 20.1823 19.8758 20.2543 19.7346 20.2974C19.5934 20.3405 19.4447 20.3535 19.2982 20.3358C15.5531 19.8556 12.0744 18.1423 9.41088 15.4661C6.74736 12.7899 5.05058 9.30314 4.58817 5.55581C4.57225 5.40932 4.5862 5.26114 4.62917 5.1202C4.67214 4.97926 4.74324 4.84849 4.83817 4.73581C4.93188 4.62914 5.04723 4.54365 5.17655 4.48502C5.30586 4.4264 5.44618 4.39599 5.58817 4.39581H8.58817C8.82071 4.39063 9.04779 4.46669 9.23031 4.61088C9.41283 4.75507 9.53938 4.95838 9.58817 5.18581C9.62817 5.45914 9.67817 5.72914 9.73817 5.99581C9.85369 6.52295 10.0074 7.04099 10.1982 7.54581L8.79817 8.19581C8.67846 8.25073 8.57079 8.32875 8.48132 8.4254C8.39186 8.52205 8.32237 8.63542 8.27684 8.759C8.23131 8.88258 8.21064 9.01394 8.21601 9.14553C8.22139 9.27712 8.25271 9.40635 8.30817 9.5258C9.74737 12.6086 12.2254 15.0866 15.3082 16.5258C15.5516 16.6258 15.8247 16.6258 16.0682 16.5258C16.1929 16.4812 16.3075 16.4123 16.4053 16.323C16.5032 16.2337 16.5823 16.1259 16.6382 16.0058L17.2582 14.6058C17.7751 14.7907 18.3028 14.9443 18.8382 15.0658C19.1048 15.1258 19.3748 15.1758 19.6482 15.2158C19.8756 15.2646 20.0789 15.3911 20.2231 15.5737C20.3673 15.7562 20.4433 15.9833 20.4382 16.2158L20.4582 19.3358Z" fill="#171717"/>
</svg>
