<svg width="64" height="64" viewBox="0 0 64 64" fill="none" xmlnsXlink="http://www.w3.org/2000/svg">
<rect y="0.000488281" width="64" height="64" rx="8" fill="#FFEDD5"/>
<path d="M42.0002 19.5005H47.0002C47.4422 19.5005 47.8661 19.3249 48.1787 19.0123C48.4912 18.6998 48.6668 18.2759 48.6668 17.8338C48.6668 17.3918 48.4912 16.9679 48.1787 16.6553C47.8661 16.3428 47.4422 16.1672 47.0002 16.1672H42.0002C41.5581 16.1672 41.1342 16.3428 40.8217 16.6553C40.5091 16.9679 40.3335 17.3918 40.3335 17.8338C40.3335 18.2759 40.5091 18.6998 40.8217 19.0123C41.1342 19.3249 41.5581 19.5005 42.0002 19.5005ZM47.0002 22.8338H17.0002C16.5581 22.8338 16.1342 23.0094 15.8217 23.322C15.5091 23.6345 15.3335 24.0585 15.3335 24.5005V31.1672C15.3335 31.6092 15.5091 32.0331 15.8217 32.3457C16.1342 32.6582 16.5581 32.8338 17.0002 32.8338H19.5835L28.1002 37.1005L23.8002 39.2505C22.8718 38.347 21.6289 37.8391 20.3335 37.8338C19.3446 37.8338 18.3779 38.1271 17.5556 38.6765C16.7334 39.2259 16.0925 40.0068 15.7141 40.9204C15.3357 41.834 15.2366 42.8394 15.4296 43.8093C15.6225 44.7792 16.0987 45.6701 16.798 46.3694C17.4972 47.0686 18.3881 47.5448 19.358 47.7377C20.328 47.9307 21.3333 47.8317 22.2469 47.4532C23.1605 47.0748 23.9414 46.4339 24.4908 45.6117C25.0403 44.7894 25.3335 43.8227 25.3335 42.8338C25.3499 42.6342 25.3499 42.4335 25.3335 42.2338L31.9002 38.9005L38.6668 42.4005C38.6587 42.5448 38.6587 42.6895 38.6668 42.8338C38.6668 43.8227 38.9601 44.7894 39.5095 45.6117C40.0589 46.4339 40.8398 47.0748 41.7534 47.4532C42.667 47.8317 43.6724 47.9307 44.6423 47.7377C45.6122 47.5448 46.5031 47.0686 47.2024 46.3694C47.9016 45.6701 48.3778 44.7792 48.5708 43.8093C48.7637 42.8394 48.6647 41.834 48.2862 40.9204C47.9078 40.0068 47.2669 39.2259 46.4447 38.6765C45.6224 38.1271 44.6557 37.8338 43.6668 37.8338C42.9973 37.8365 42.3351 37.9736 41.7196 38.237C41.1041 38.5003 40.5477 38.8847 40.0835 39.3672L35.5502 37.1005L44.0668 32.8338H47.0002C47.4422 32.8338 47.8661 32.6582 48.1787 32.3457C48.4912 32.0331 48.6668 31.6092 48.6668 31.1672V24.5005C48.6668 24.2816 48.6237 24.0649 48.54 23.8627C48.4562 23.6605 48.3334 23.4767 48.1787 23.322C48.0239 23.1672 47.8402 23.0444 47.638 22.9607C47.4358 22.8769 47.219 22.8338 47.0002 22.8338ZM20.3335 44.5005C20.0039 44.5005 19.6816 44.4027 19.4075 44.2196C19.1335 44.0365 18.9198 43.7762 18.7937 43.4716C18.6676 43.1671 18.6345 42.832 18.6989 42.5087C18.7632 42.1854 18.9219 41.8884 19.155 41.6553C19.3881 41.4222 19.685 41.2635 20.0083 41.1992C20.3316 41.1349 20.6668 41.1679 20.9713 41.294C21.2758 41.4202 21.5361 41.6338 21.7193 41.9079C21.9024 42.182 22.0002 42.5042 22.0002 42.8338C22.0002 43.2759 21.8246 43.6998 21.512 44.0123C21.1994 44.3249 20.7755 44.5005 20.3335 44.5005ZM43.6668 41.1672C43.9965 41.1672 44.3187 41.2649 44.5928 41.448C44.8669 41.6312 45.0805 41.8915 45.2066 42.196C45.3328 42.5006 45.3658 42.8357 45.3015 43.159C45.2372 43.4823 45.0784 43.7792 44.8453 44.0123C44.6123 44.2454 44.3153 44.4042 43.992 44.4685C43.6687 44.5328 43.3336 44.4998 43.029 44.3736C42.7245 44.2475 42.4642 44.0339 42.281 43.7598C42.0979 43.4857 42.0002 43.1635 42.0002 42.8338C42.0002 42.3918 42.1758 41.9679 42.4883 41.6553C42.8009 41.3427 43.2248 41.1672 43.6668 41.1672ZM31.8335 35.2338L27.0002 32.8338H36.5835L31.8335 35.2338ZM45.3335 29.5005H18.6668V26.1672H45.3335V29.5005Z" fill="#EA580C"/>
</svg>
