<svg width="64" height="64" viewBox="0 0 64 64" fill="none" xmlnsXlink="http://www.w3.org/2000/svg">
<rect y="0.000488281" width="64" height="64" rx="8" fill="#E0F2FE"/>
<path d="M35.934 35.7173C34.8199 36.6156 33.4318 37.1055 32.0007 37.1055C30.5695 37.1055 29.1815 36.6156 28.0673 35.7173C27.727 35.4344 27.2882 35.2983 26.8475 35.339C26.4067 35.3796 26.0002 35.5936 25.7173 35.934C25.4344 36.2743 25.2983 36.7131 25.339 37.1539C25.3796 37.5946 25.5936 38.0011 25.934 38.284C27.6362 39.705 29.7833 40.4834 32.0007 40.4834C34.2181 40.4834 36.3651 39.705 38.0673 38.284C38.4077 38.0011 38.6217 37.5946 38.6624 37.1539C38.703 36.7131 38.5669 36.2743 38.284 35.934C38.1439 35.7655 37.972 35.6262 37.7781 35.5241C37.5842 35.422 37.3721 35.3591 37.1539 35.339C36.7132 35.2983 36.2744 35.4344 35.934 35.7173ZM27.0007 30.334C27.3303 30.334 27.6525 30.2362 27.9266 30.0531C28.2007 29.87 28.4143 29.6097 28.5405 29.3051C28.6666 29.0006 28.6996 28.6655 28.6353 28.3422C28.571 28.0189 28.4123 27.7219 28.1792 27.4888C27.9461 27.2557 27.6491 27.097 27.3258 27.0327C27.0025 26.9684 26.6674 27.0014 26.3629 27.1275C26.0583 27.2537 25.798 27.4673 25.6149 27.7414C25.4317 28.0154 25.334 28.3377 25.334 28.6673C25.334 29.1093 25.5096 29.5333 25.8221 29.8458C26.1347 30.1584 26.5586 30.334 27.0007 30.334ZM37.0007 27.0007C36.671 27.0007 36.3488 27.0984 36.0747 27.2815C35.8006 27.4647 35.587 27.725 35.4609 28.0295C35.3347 28.3341 35.3017 28.6692 35.366 28.9925C35.4303 29.3158 35.5891 29.6127 35.8221 29.8458C36.0552 30.0789 36.3522 30.2377 36.6755 30.302C36.9988 30.3663 37.3339 30.3333 37.6385 30.2071C37.943 30.081 38.2033 29.8674 38.3864 29.5933C38.5696 29.3192 38.6673 28.997 38.6673 28.6673C38.6673 28.2253 38.4917 27.8014 38.1792 27.4888C37.8666 27.1762 37.4427 27.0007 37.0007 27.0007ZM32.0007 15.334C28.7043 15.334 25.482 16.3115 22.7412 18.1428C20.0003 19.9742 17.8641 22.5772 16.6027 25.6226C15.3412 28.668 15.0112 32.0191 15.6542 35.2522C16.2973 38.4852 17.8847 41.4549 20.2155 43.7858C22.5464 46.1166 25.5161 47.704 28.7492 48.3471C31.9822 48.9902 35.3333 48.6601 38.3787 47.3986C41.4242 46.1372 44.0271 44.001 45.8585 41.2602C47.6898 38.5193 48.6673 35.297 48.6673 32.0007C48.6673 29.812 48.2362 27.6447 47.3987 25.6226C46.5611 23.6005 45.3334 21.7632 43.7858 20.2155C42.2381 18.6679 40.4008 17.4402 38.3787 16.6027C36.3566 15.7651 34.1894 15.334 32.0007 15.334ZM32.0007 45.334C29.3636 45.334 26.7857 44.552 24.5931 43.0869C22.4004 41.6218 20.6914 39.5394 19.6823 37.1031C18.6731 34.6667 18.4091 31.9859 18.9235 29.3994C19.438 26.813 20.7079 24.4373 22.5726 22.5726C24.4373 20.7079 26.813 19.438 29.3995 18.9235C31.9859 18.409 34.6668 18.6731 37.1031 19.6823C39.5395 20.6914 41.6218 22.4004 43.0869 24.593C44.552 26.7857 45.334 29.3636 45.334 32.0007C45.334 35.5369 43.9292 38.9283 41.4287 41.4287C38.9283 43.9292 35.5369 45.334 32.0007 45.334Z" fill="#0284C7"/>
</svg>
