<svg width="64" height="64" viewBox="0 0 64 64" fill="none" xmlnsXlink="http://www.w3.org/2000/svg">
<rect y="0.000488281" width="64" height="64" rx="8" fill="#E0F2FE"/>
<path d="M18.6191 43.1021C18.6191 45.8032 21.1217 48.0005 24.1986 48.0005H44.0488C44.5606 48.0005 45.0267 47.7075 45.2494 47.2472C45.472 46.7863 45.4108 46.2394 45.0931 45.8384C43.5918 43.9458 43.5918 42.2583 45.0931 40.3657C45.1504 40.2934 45.1895 40.212 45.23 40.1316C45.2453 40.1011 45.2679 40.0765 45.2808 40.0447C45.34 39.9013 45.3646 39.7492 45.3714 39.5955C45.3722 39.5768 45.3822 39.5611 45.3822 39.5422V17.3338C45.3822 16.5975 44.7858 16.0005 44.0488 16.0005H23.334C20.7337 16.0005 18.6191 18.1157 18.6191 20.7153V43.1021ZM41.7285 45.3338H24.1986C22.6191 45.3338 21.2858 44.3117 21.2858 43.1021C21.2858 41.8924 22.6191 40.8703 24.1986 40.8703H41.7285C41.1491 42.3507 41.1491 43.8534 41.7285 45.3338ZM23.334 18.6672H42.7155V38.2036H24.1986C23.1278 38.2036 22.1362 38.4827 21.2858 38.9436V20.7153C21.2858 19.5858 22.2051 18.6672 23.334 18.6672Z" fill="#0284C7"/>
<path d="M27.9447 26.8514H30.6673V35.0741C30.6673 35.8104 31.2637 36.4074 32.0007 36.4074C32.7376 36.4074 33.334 35.8104 33.334 35.0741V26.8514H36.0566C36.7936 26.8514 37.39 26.2544 37.39 25.5181C37.39 24.7817 36.7936 24.1847 36.0566 24.1847H33.334V21.6294C33.334 20.8931 32.7376 20.2961 32.0007 20.2961C31.2637 20.2961 30.6673 20.8931 30.6673 21.6294V24.1847H27.9447C27.2077 24.1847 26.6113 24.7817 26.6113 25.5181C26.6113 26.2544 27.2077 26.8514 27.9447 26.8514Z" fill="#0284C7"/>
</svg>
