<svg width="251" height="251" viewBox="0 0 251 251" fill="none" xmlnsXlink="http://www.w3.org/2000/svg">
<path fill-rule="evenodd" clip-rule="evenodd" d="M156.816 21.398L45.8799 51.1232C27.4099 56.0722 16.449 75.057 21.398 93.527L51.1232 204.463C56.0722 222.933 75.057 233.894 93.527 228.945L204.463 199.22C222.933 194.271 233.894 175.286 228.945 156.816L199.22 45.8799C194.271 27.4099 175.286 16.449 156.816 21.398ZM40.7157 31.8503C11.6016 39.6514 -5.67599 69.5771 2.12511 98.6912L31.8503 209.627C39.6514 238.741 69.5771 256.019 98.6912 248.218L209.627 218.492C238.741 210.691 256.019 180.766 248.218 151.652L218.492 40.7157C210.691 11.6016 180.766 -5.67599 151.652 2.12511L40.7157 31.8503Z" fill="#FFEDD5"/>
</svg>
