<svg  viewBox="0 0 250 251" fill="none" xmlns="http://www.w3.org/2000/svg">
<path fill-rule="evenodd" clip-rule="evenodd" d="M156.644 21.748L45.708 51.4732C27.2381 56.4222 16.2772 75.4071 21.2262 93.877L50.9514 204.813C55.9004 223.283 74.8852 234.244 93.3552 229.295L204.291 199.57C222.761 194.621 233.722 175.636 228.773 157.166L199.048 46.2299C194.099 27.7599 175.114 16.799 156.644 21.748ZM40.5439 32.2003C11.4298 40.0014 -5.84783 69.9271 1.95327 99.0412L31.6784 209.977C39.4795 239.091 69.4052 256.369 98.5193 248.568L209.455 218.842C238.569 211.041 255.847 181.116 248.046 152.002L218.321 41.0657C210.52 11.9516 180.594 -5.32599 151.48 2.47512L40.5439 32.2003Z" fill="#FFEDD5"/>
</svg>
