<svg width="65" height="65" viewBox="0 0 65 65" fill="none" xmlnsXlink="http://www.w3.org/2000/svg">
<rect x="0.5" y="0.37561" width="64" height="64" rx="8" fill="#E0F2FE"/>
<path d="M36.4335 36.0923C35.3194 36.9906 33.9313 37.4805 32.5002 37.4805C31.069 37.4805 29.681 36.9906 28.5668 36.0923C28.2265 35.8094 27.7877 35.6733 27.347 35.714C26.9063 35.7546 26.4997 35.9686 26.2168 36.309C25.9339 36.6493 25.7978 37.0881 25.8385 37.5289C25.8791 37.9696 26.0931 38.3761 26.4335 38.659C28.1357 40.08 30.2828 40.8584 32.5002 40.8584C34.7176 40.8584 36.8646 40.08 38.5668 38.659C38.9072 38.3761 39.1212 37.9696 39.1619 37.5289C39.2025 37.0881 39.0664 36.6493 38.7835 36.309C38.6434 36.1405 38.4715 36.0012 38.2776 35.8991C38.0837 35.797 37.8716 35.7341 37.6534 35.714C37.2127 35.6733 36.7739 35.8094 36.4335 36.0923ZM27.5002 30.709C27.8298 30.709 28.152 30.6112 28.4261 30.4281C28.7002 30.245 28.9138 29.9847 29.04 29.6801C29.1661 29.3756 29.1991 29.0405 29.1348 28.7172C29.0705 28.3939 28.9118 28.0969 28.6787 27.8638C28.4456 27.6307 28.1486 27.472 27.8253 27.4077C27.502 27.3434 27.1669 27.3764 26.8624 27.5025C26.5578 27.6287 26.2975 27.8423 26.1144 28.1164C25.9313 28.3904 25.8335 28.7127 25.8335 29.0423C25.8335 29.4843 26.0091 29.9083 26.3217 30.2208C26.6342 30.5334 27.0581 30.709 27.5002 30.709ZM37.5002 27.3757C37.1705 27.3757 36.8483 27.4734 36.5742 27.6565C36.3001 27.8397 36.0865 28.1 35.9604 28.4045C35.8342 28.7091 35.8012 29.0442 35.8655 29.3675C35.9298 29.6908 36.0886 29.9877 36.3217 30.2208C36.5547 30.4539 36.8517 30.6127 37.175 30.677C37.4983 30.7413 37.8334 30.7083 38.138 30.5821C38.4425 30.456 38.7028 30.2424 38.886 29.9683C39.0691 29.6942 39.1668 29.372 39.1668 29.0423C39.1668 28.6003 38.9912 28.1764 38.6787 27.8638C38.3661 27.5512 37.9422 27.3757 37.5002 27.3757ZM32.5002 15.709C29.2038 15.709 25.9815 16.6865 23.2407 18.5178C20.4998 20.3492 18.3636 22.9522 17.1022 25.9976C15.8407 29.043 15.5107 32.3941 16.1537 35.6272C16.7968 38.8602 18.3842 41.8299 20.7151 44.1608C23.0459 46.4916 26.0156 48.079 29.2487 48.7221C32.4817 49.3652 35.8328 49.0351 38.8782 47.7736C41.9237 46.5122 44.5266 44.376 46.358 41.6352C48.1894 38.8943 49.1668 35.672 49.1668 32.3757C49.1668 30.187 48.7357 28.0197 47.8982 25.9976C47.0606 23.9755 45.8329 22.1382 44.2853 20.5905C42.7376 19.0429 40.9003 17.8152 38.8782 16.9777C36.8561 16.1401 34.6889 15.709 32.5002 15.709ZM32.5002 45.709C29.8631 45.709 27.2852 44.927 25.0926 43.4619C22.8999 41.9968 21.1909 39.9144 20.1818 37.4781C19.1726 35.0417 18.9086 32.3609 19.423 29.7744C19.9375 27.188 21.2074 24.8123 23.0721 22.9476C24.9368 21.0829 27.3126 19.813 29.899 19.2985C32.4854 18.784 35.1663 19.0481 37.6026 20.0573C40.039 21.0664 42.1213 22.7754 43.5864 24.968C45.0515 27.1607 45.8335 29.7386 45.8335 32.3757C45.8335 35.9119 44.4287 39.3033 41.9283 41.8037C39.4278 44.3042 36.0364 45.709 32.5002 45.709Z" fill="#0284C7"/>
</svg>
