<svg width="16" height="16" viewBox="0 0 16 16" fill="none" xmlnsXlink="http://www.w3.org/2000/svg">
<path d="M13.6 1.37927H2.4C1.76348 1.37927 1.15303 1.64085 0.702944 2.10646C0.252856 2.57206 0 3.20356 0 3.86203V12.1379C0 12.7964 0.252856 13.4279 0.702944 13.8935C1.15303 14.3591 1.76348 14.6207 2.4 14.6207H13.6C14.2365 14.6207 14.847 14.3591 15.2971 13.8935C15.7471 13.4279 16 12.7964 16 12.1379V3.86203C16 3.20356 15.7471 2.57206 15.2971 2.10646C14.847 1.64085 14.2365 1.37927 13.6 1.37927ZM2.4 3.03444H13.6C13.8122 3.03444 14.0157 3.12164 14.1657 3.27684C14.3157 3.43204 14.4 3.64254 14.4 3.86203L8 7.90065L1.6 3.86203C1.6 3.64254 1.68429 3.43204 1.83431 3.27684C1.98434 3.12164 2.18783 3.03444 2.4 3.03444ZM14.4 12.1379C14.4 12.3574 14.3157 12.5679 14.1657 12.7231C14.0157 12.8783 13.8122 12.9655 13.6 12.9655H2.4C2.18783 12.9655 1.98434 12.8783 1.83431 12.7231C1.68429 12.5679 1.6 12.3574 1.6 12.1379V5.74893L7.584 9.531C7.70562 9.60363 7.84357 9.64187 7.984 9.64187C8.12443 9.64187 8.26238 9.60363 8.384 9.531L14.4 5.74893V12.1379Z" fill="white"/>
</svg>
